<svg width="165" height="165" viewBox="0 0 165 165" fill="none" xmlns="http://www.w3.org/2000/svg">
<g clip-path="url(#clip0_1_23)">
<path d="M138.79 0H25.24C11.3003 0 0 11.3003 0 25.24V138.79C0 152.73 11.3003 164.03 25.24 164.03H138.79C152.73 164.03 164.03 152.73 164.03 138.79V25.24C164.03 11.3003 152.73 0 138.79 0Z" fill="#101010"/>
<path d="M50.02 134.1L31.69 69.24H47.27L58.67 114.84H59.26L70.92 69.24H86.33L97.99 114.59H98.62L109.85 69.24H125.47L107.1 134.1H91.18L79.02 90.27H78.13L65.97 134.1H50.01H50.02Z" fill="#F5F5F5"/>
<path d="M61.65 29.9301H56.28C54.0709 29.9301 52.28 31.7209 52.28 33.9301V58.5601C52.28 60.7692 54.0709 62.5601 56.28 62.5601H61.65C63.8591 62.5601 65.65 60.7692 65.65 58.5601V33.9301C65.65 31.7209 63.8591 29.9301 61.65 29.9301Z" fill="#F5F5F5"/>
<path d="M100.96 29.9301H95.59C93.3809 29.9301 91.59 31.7209 91.59 33.9301V58.5601C91.59 60.7692 93.3809 62.5601 95.59 62.5601H100.96C103.169 62.5601 104.96 60.7692 104.96 58.5601V33.9301C104.96 31.7209 103.169 29.9301 100.96 29.9301Z" fill="#F5F5F5"/>
<path d="M137.22 125.96C137.22 121.47 133.58 117.83 129.09 117.83C124.6 117.83 120.96 121.47 120.96 125.96C120.96 130.45 124.6 134.09 129.09 134.09C133.58 134.09 137.22 130.45 137.22 125.96Z" fill="#F5F5F5"/>
</g>
<defs>
<clipPath id="clip0_1_23">
<rect width="164.03" height="164.03" fill="white"/>
</clipPath>
</defs>
</svg>
