<svg width="449" height="103" viewBox="0 0 449 103" fill="none" xmlns="http://www.w3.org/2000/svg">
<path d="M30 33.84H37.83L51.45 67.09H51.95L65.57 33.84H73.4V76.62H67.26V45.66H66.86L54.24 76.55H49.14L36.54 45.64H36.14V76.62H30V33.84Z" fill="#F5F5F5"/>
<path d="M93.78 77.27C90.62 77.27 87.9 76.59 85.62 75.23C83.34 73.87 81.59 71.96 80.36 69.49C79.13 67.02 78.51 64.12 78.51 60.79C78.51 57.46 79.13 54.61 80.36 52.1C81.59 49.59 83.32 47.64 85.54 46.23C87.76 44.82 90.36 44.12 93.34 44.12C95.15 44.12 96.9 44.42 98.6 45.02C100.3 45.62 101.82 46.56 103.17 47.84C104.52 49.12 105.59 50.78 106.37 52.82C107.15 54.86 107.54 57.34 107.54 60.24V62.45H82.04V57.77H101.42C101.42 56.13 101.09 54.67 100.42 53.39C99.75 52.11 98.82 51.11 97.61 50.37C96.4 49.63 95 49.26 93.38 49.26C91.63 49.26 90.1 49.69 88.79 50.54C87.48 51.39 86.49 52.51 85.78 53.88C85.08 55.25 84.73 56.74 84.73 58.34V61.99C84.73 64.14 85.11 65.96 85.87 67.46C86.63 68.96 87.69 70.11 89.06 70.9C90.42 71.69 92.02 72.08 93.84 72.08C95.02 72.08 96.1 71.91 97.08 71.57C98.05 71.23 98.9 70.72 99.61 70.04C100.32 69.36 100.86 68.51 101.24 67.51L107.15 68.58C106.68 70.32 105.83 71.84 104.61 73.14C103.39 74.44 101.87 75.45 100.04 76.17C98.21 76.89 96.12 77.24 93.78 77.24V77.27Z" fill="#F5F5F5"/>
<path d="M125.66 77.27C122.65 77.27 120.03 76.58 117.79 75.2C115.55 73.82 113.81 71.89 112.57 69.41C111.33 66.93 110.71 64.04 110.71 60.72C110.71 57.4 111.33 54.48 112.57 51.99C113.81 49.5 115.55 47.56 117.79 46.18C120.03 44.8 122.66 44.11 125.66 44.11C128.66 44.11 131.29 44.8 133.53 46.18C135.77 47.56 137.51 49.49 138.75 51.99C139.99 54.48 140.61 57.39 140.61 60.72C140.61 64.05 139.99 66.93 138.75 69.41C137.51 71.89 135.77 73.82 133.53 75.2C131.29 76.58 128.66 77.27 125.66 77.27ZM125.68 72.03C127.63 72.03 129.24 71.51 130.52 70.48C131.8 69.45 132.75 68.08 133.37 66.36C133.99 64.65 134.3 62.76 134.3 60.7C134.3 58.64 133.99 56.77 133.37 55.05C132.75 53.33 131.8 51.95 130.52 50.9C129.24 49.86 127.62 49.33 125.68 49.33C123.74 49.33 122.09 49.85 120.8 50.9C119.51 51.95 118.56 53.33 117.94 55.05C117.32 56.77 117.01 58.65 117.01 60.7C117.01 62.75 117.32 64.65 117.94 66.36C118.56 68.07 119.51 69.45 120.8 70.48C122.09 71.51 123.71 72.03 125.68 72.03Z" fill="#F5F5F5"/>
<path d="M151.19 76.62L141.75 44.54H148.2L154.49 68.1H154.8L161.11 44.54H167.57L173.84 68H174.15L180.4 44.54H186.86L177.44 76.62H171.07L164.55 53.46H164.07L157.55 76.62H151.2H151.19Z" fill="#F5F5F5"/>
<path d="M190.18 77.02C189.04 77.02 188.06 76.61 187.23 75.8C186.41 74.98 186 74 186 72.84C186 71.68 186.41 70.72 187.23 69.91C188.05 69.09 189.03 68.69 190.18 68.69C191.33 68.69 192.3 69.1 193.12 69.91C193.94 70.72 194.35 71.7 194.35 72.84C194.35 73.61 194.16 74.31 193.78 74.94C193.4 75.57 192.89 76.08 192.27 76.45C191.64 76.83 190.95 77.01 190.18 77.01V77.02Z" fill="#F5F5F5"/>
<path d="M212.37 77.25C209.78 77.25 207.47 76.59 205.45 75.26C203.42 73.93 201.84 72.03 200.69 69.56C199.54 67.09 198.97 64.12 198.97 60.65C198.97 57.18 199.55 54.22 200.71 51.75C201.87 49.29 203.47 47.4 205.5 46.09C207.53 44.78 209.84 44.13 212.41 44.13C214.4 44.13 216.01 44.46 217.22 45.12C218.43 45.78 219.39 46.55 220.06 47.43C220.73 48.31 221.26 49.08 221.64 49.75H222.02V33.86H228.27V76.64H222.17V71.65H221.65C221.27 72.33 220.74 73.11 220.03 73.99C219.32 74.87 218.36 75.63 217.14 76.29C215.92 76.95 214.33 77.27 212.38 77.27L212.37 77.25ZM213.75 71.92C215.55 71.92 217.07 71.44 218.32 70.49C219.57 69.54 220.51 68.21 221.16 66.51C221.81 64.81 222.13 62.83 222.13 60.58C222.13 58.33 221.81 56.4 221.17 54.73C220.53 53.06 219.59 51.76 218.35 50.82C217.11 49.89 215.58 49.42 213.75 49.42C211.92 49.42 210.3 49.91 209.05 50.88C207.8 51.85 206.85 53.18 206.22 54.87C205.59 56.55 205.27 58.45 205.27 60.57C205.27 62.69 205.59 64.64 206.23 66.36C206.87 68.07 207.82 69.43 209.08 70.42C210.34 71.41 211.9 71.91 213.75 71.91V71.92Z" fill="#F5F5F5"/>
<path d="M248.32 77.27C245.31 77.27 242.69 76.58 240.44 75.2C238.19 73.82 236.46 71.89 235.22 69.41C233.98 66.93 233.36 64.04 233.36 60.72C233.36 57.4 233.98 54.48 235.22 51.99C236.46 49.5 238.2 47.56 240.44 46.18C242.68 44.8 245.31 44.11 248.32 44.11C251.33 44.11 253.95 44.8 256.19 46.18C258.43 47.56 260.17 49.49 261.41 51.99C262.65 54.49 263.27 57.39 263.27 60.72C263.27 64.05 262.65 66.93 261.41 69.41C260.17 71.89 258.43 73.82 256.19 75.2C253.95 76.58 251.32 77.27 248.32 77.27ZM248.34 72.03C250.29 72.03 251.9 71.51 253.19 70.48C254.47 69.45 255.42 68.08 256.04 66.36C256.66 64.65 256.97 62.76 256.97 60.7C256.97 58.64 256.66 56.77 256.04 55.05C255.42 53.33 254.47 51.95 253.19 50.9C251.91 49.86 250.29 49.33 248.34 49.33C246.39 49.33 244.75 49.85 243.46 50.9C242.17 51.95 241.22 53.33 240.6 55.05C239.98 56.77 239.67 58.65 239.67 60.7C239.67 62.75 239.98 64.65 240.6 66.36C241.22 68.07 242.17 69.45 243.46 70.48C244.75 71.51 246.37 72.03 248.34 72.03Z" fill="#F5F5F5"/>
<path d="M267.88 76.62V44.54H273.88V49.76H274.28C274.95 47.99 276.04 46.61 277.56 45.61C279.08 44.61 280.89 44.12 283.01 44.12C285.13 44.12 286.95 44.62 288.41 45.62C289.87 46.62 290.94 48 291.64 49.76H291.97C292.74 48.05 293.95 46.68 295.62 45.66C297.29 44.64 299.28 44.12 301.59 44.12C304.5 44.12 306.88 45.03 308.72 46.86C310.56 48.68 311.49 51.43 311.49 55.11V76.62H305.24V55.69C305.24 53.52 304.65 51.94 303.46 50.97C302.28 49.99 300.86 49.51 299.22 49.51C297.19 49.51 295.61 50.13 294.48 51.38C293.35 52.63 292.79 54.22 292.79 56.17V76.62H286.56V55.29C286.56 53.55 286.02 52.15 284.93 51.09C283.84 50.03 282.43 49.5 280.69 49.5C279.51 49.5 278.42 49.81 277.42 50.43C276.42 51.05 275.62 51.91 275.02 53.01C274.41 54.11 274.11 55.39 274.11 56.83V76.61H267.86L267.88 76.62Z" fill="#F5F5F5"/>
<path d="M326.83 77.33C324.8 77.33 322.96 76.95 321.32 76.19C319.68 75.43 318.38 74.33 317.42 72.88C316.46 71.43 315.99 69.66 315.99 67.55C315.99 65.74 316.34 64.25 317.03 63.08C317.73 61.91 318.67 60.98 319.85 60.3C321.03 59.62 322.36 59.1 323.82 58.75C325.28 58.4 326.77 58.14 328.29 57.96C330.21 57.74 331.77 57.55 332.97 57.41C334.17 57.26 335.04 57.02 335.58 56.69C336.12 56.36 336.4 55.81 336.4 55.06V54.91C336.4 53.09 335.89 51.67 334.86 50.67C333.84 49.67 332.32 49.17 330.3 49.17C328.28 49.17 326.54 49.63 325.34 50.56C324.14 51.49 323.3 52.51 322.84 53.64L316.97 52.3C317.67 50.35 318.69 48.77 320.03 47.57C321.37 46.37 322.92 45.49 324.68 44.94C326.44 44.39 328.28 44.11 330.22 44.11C331.5 44.11 332.86 44.26 334.3 44.56C335.74 44.86 337.09 45.41 338.35 46.2C339.61 46.99 340.64 48.12 341.45 49.59C342.26 51.06 342.66 52.96 342.66 55.3V76.6H336.56V72.21H336.31C335.91 73.02 335.3 73.81 334.49 74.59C333.68 75.37 332.65 76.02 331.38 76.53C330.11 77.05 328.59 77.3 326.83 77.3V77.33ZM328.19 72.32C329.92 72.32 331.4 71.98 332.63 71.3C333.86 70.62 334.8 69.72 335.45 68.62C336.1 67.52 336.42 66.33 336.42 65.06V60.92C336.2 61.14 335.77 61.35 335.14 61.54C334.51 61.73 333.79 61.89 332.98 62.02C332.17 62.15 331.38 62.27 330.62 62.38C329.85 62.48 329.21 62.57 328.7 62.64C327.49 62.79 326.39 63.05 325.39 63.41C324.39 63.77 323.6 64.29 323.01 64.97C322.42 65.65 322.12 66.54 322.12 67.65C322.12 69.2 322.69 70.36 323.83 71.15C324.97 71.94 326.43 72.33 328.2 72.33L328.19 72.32Z" fill="#F5F5F5"/>
<path d="M351.78 39.58C350.69 39.58 349.76 39.22 348.99 38.48C348.22 37.75 347.83 36.88 347.83 35.86C347.83 34.84 348.22 33.95 348.99 33.22C349.76 32.49 350.69 32.12 351.78 32.12C352.87 32.12 353.79 32.48 354.57 33.22C355.34 33.95 355.73 34.83 355.73 35.86C355.73 36.89 355.34 37.75 354.57 38.48C353.8 39.21 352.87 39.58 351.78 39.58ZM348.63 76.61V44.54H354.88V76.62H348.63V76.61Z" fill="#F5F5F5"/>
<path d="M367.16 57.57V76.62H360.91V44.54H366.9V49.76H367.3C368.04 48.06 369.2 46.7 370.78 45.67C372.36 44.64 374.36 44.12 376.76 44.12C378.95 44.12 380.86 44.58 382.5 45.49C384.14 46.4 385.42 47.76 386.32 49.55C387.23 51.35 387.68 53.57 387.68 56.21V76.62H381.43V56.96C381.43 54.64 380.82 52.81 379.61 51.5C378.4 50.18 376.73 49.53 374.62 49.53C373.17 49.53 371.89 49.84 370.77 50.47C369.65 51.1 368.76 52.01 368.12 53.22C367.47 54.43 367.15 55.88 367.15 57.58L367.16 57.57Z" fill="#F5F5F5"/>
<path d="M417.73 52.37L412.07 53.37C411.83 52.65 411.46 51.96 410.95 51.3C410.44 50.65 409.76 50.11 408.89 49.69C408.03 49.27 406.95 49.06 405.65 49.06C403.88 49.06 402.4 49.45 401.22 50.24C400.04 51.03 399.44 52.04 399.44 53.28C399.44 54.35 399.84 55.22 400.63 55.87C401.42 56.52 402.7 57.06 404.47 57.48L409.57 58.65C412.52 59.33 414.72 60.38 416.17 61.8C417.62 63.22 418.34 65.07 418.34 67.34C418.34 69.26 417.79 70.97 416.68 72.47C415.57 73.97 414.03 75.14 412.07 75.99C410.1 76.84 407.82 77.26 405.23 77.26C401.64 77.26 398.71 76.49 396.44 74.95C394.17 73.41 392.78 71.22 392.26 68.38L398.3 67.46C398.68 69.03 399.45 70.22 400.62 71.02C401.79 71.82 403.31 72.22 405.19 72.22C407.24 72.22 408.87 71.79 410.1 70.94C411.33 70.09 411.94 69.04 411.94 67.8C411.94 66.8 411.57 65.95 410.82 65.27C410.07 64.59 408.94 64.07 407.4 63.72L401.97 62.53C398.98 61.85 396.77 60.76 395.34 59.27C393.91 57.78 393.2 55.89 393.2 53.61C393.2 51.72 393.73 50.06 394.79 48.64C395.85 47.22 397.31 46.11 399.18 45.31C401.05 44.51 403.18 44.11 405.59 44.11C409.06 44.11 411.79 44.86 413.78 46.36C415.77 47.86 417.09 49.86 417.73 52.36V52.37Z" fill="#F5F5F5"/>
<path d="M155.76 25H153.36C152.366 25 151.56 25.8059 151.56 26.8V37.93C151.56 38.9241 152.366 39.73 153.36 39.73H155.76C156.754 39.73 157.56 38.9241 157.56 37.93V26.8C157.56 25.8059 156.754 25 155.76 25Z" fill="#F5F5F5"/>
<path d="M175.13 25H172.73C171.736 25 170.93 25.8059 170.93 26.8V37.93C170.93 38.9241 171.736 39.73 172.73 39.73H175.13C176.124 39.73 176.93 38.9241 176.93 37.93V26.8C176.93 25.8059 176.124 25 175.13 25Z" fill="#F5F5F5"/>
</svg>
